<svg width="254" height="274" viewBox="0 0 254 274" fill="none" xmlns="http://www.w3.org/2000/svg">
<path fill-rule="evenodd" clip-rule="evenodd" d="M158.642 39.2018C156.433 38.6083 154.22 38.1478 152.024 37.691C147.905 36.834 143.847 35.9897 140 34.3048C138.018 33.4364 136.282 34.4927 135.784 36.596C135.224 38.9608 133.914 40.9109 132.605 42.8607C131.912 43.8921 131.22 44.9234 130.638 46.0161C130.053 47.1156 128.824 46.9517 127.798 46.8149L127.765 46.8106C127.709 46.803 127.653 46.7956 127.597 46.7885C125.771 46.5545 123.95 46.6499 122.13 46.7452C120.721 46.819 119.312 46.8928 117.903 46.8134C116.254 46.7206 115.643 47.3258 115.673 49.0589C115.779 55.2548 115.796 61.4542 115.709 67.6504C115.681 69.7065 116.43 70.5151 118.449 70.4092C119.459 70.3561 120.472 70.3656 121.486 70.375C122.23 70.382 122.974 70.3889 123.718 70.3711C124.807 70.3451 125.711 70.0148 125.915 68.7196C125.937 68.5762 125.949 68.4178 125.96 68.2557C126.011 67.5554 126.067 66.7852 127.039 66.8542C128.161 66.9339 128.11 67.8283 128.065 68.6157C128.056 68.768 128.047 68.9163 128.048 69.0539C128.064 78.0265 128.231 107.062 128.231 107.062C128.225 108.756 128.227 110.423 128.23 112.093L128.231 112.406V113.296C128.253 114.689 120.908 114.758 119.025 114.758C118.112 114.845 117.511 114.845 117.511 114.845L115.105 114.845L113.902 114.845L110.894 114.845L108.488 114.845C106.074 114.903 105.367 113.73 105.386 111.267C105.496 97.5781 105.506 83.887 105.435 70.1971C105.372 58.1163 97.0307 48.0821 85.2636 45.7157C73.9188 43.4343 62.1998 51.2565 60.1591 62.5678C59.8186 64.4551 58.8901 64.9543 57.1395 64.9362C51.3142 64.8759 45.4877 64.8964 39.6619 64.9327C36.7961 64.9506 36.5383 65.3677 37.5126 68.0083C40.5297 76.1858 47.0351 80.7472 55.7188 80.7517C57.1341 80.7524 58.5495 80.7542 59.9648 80.7559C65.6701 80.7628 71.3756 80.7698 77.0802 80.7121C80.363 80.6788 82.9018 81.8391 84.2554 84.8883C85.5977 87.9117 84.9028 90.7233 82.6708 93.0646C81.619 94.1679 80.5142 95.2228 79.4098 96.2774C77.9044 97.7149 76.3997 99.1518 75.0308 100.71C65.7901 111.225 64.8226 123.452 69.7086 135.776C77.5502 155.556 92.5463 167.044 113.752 169.563C141.982 172.917 167.354 156.731 177.67 129.446C177.67 129.446 194.817 117.801 194.502 112.093L192.096 112.093C192.096 112.093 191.659 112.082 190.987 112.093H189.073H188.235H187.511H186.777L184.972 112.093L183.769 112.093L180.762 112.093H178.356H175.95H174.747H174.145H172.943H169.334H168.131H167.529H166.326L164.522 112.093L162.116 112.093H159.71L148.513 112.406C147.215 112.447 147.218 111.673 147.221 110.871L147.221 110.796L147.221 110.725C147.212 105.167 147.209 99.609 147.207 94.051C147.203 84.7161 147.199 75.3813 147.159 66.0466C147.149 63.6057 148.624 63.6203 150.169 63.6356C150.291 63.6368 150.413 63.638 150.535 63.638C160.53 63.6389 170.525 63.6456 180.52 63.6522C185.691 63.6557 190.862 63.6591 196.033 63.6617C196.609 63.662 197.184 63.6635 197.76 63.6649C199.774 63.6699 201.788 63.6749 203.801 63.6311C205.543 63.5932 206.311 64.3092 206.297 66.0987C206.236 73.5555 206.234 81.0129 206.232 88.47L206.232 88.5763C206.232 89.8663 205.902 90.7579 204.379 90.6937C202.624 90.6197 202.409 91.6377 202.73 93.054C202.919 93.8856 202.701 94.6259 202.365 95.4418C201.197 98.2748 201.495 101.078 203.19 103.616C205.324 106.812 208.849 107.76 211.833 106.088C214.99 104.319 217.039 99.0782 215.602 95.9718C215.155 95.0049 214.826 94.1112 214.892 93.0892C214.994 91.511 214.454 90.6344 212.722 90.6811C211.403 90.7165 211.013 89.8369 211.023 88.6586C211.043 86.3815 211.036 84.1042 211.03 81.8269C211.015 76.5221 211.001 71.2172 211.309 65.9147C211.421 64.003 212.253 63.1921 214.108 63.4643C216.087 63.7548 216.586 62.8106 216.744 60.9692L216.759 60.7956C217.056 57.3575 217.203 55.6489 216.443 54.5916C215.693 53.5471 214.058 53.1381 210.807 52.325L210.7 52.2984C198.669 49.2889 186.643 46.2577 174.542 43.2075L174.539 43.2069L174.527 43.2039L174.495 43.1959C169.227 41.868 163.945 40.5366 158.642 39.2018ZM146.125 49.9424C145.681 48.8809 145.192 47.8372 144.698 46.7838C143.713 44.6789 142.709 42.5351 142.007 40.1331C150.758 42.5051 159.458 44.5916 168.116 46.6677C174.075 48.0967 180.013 49.5209 185.934 51.0298C173.594 51.2834 161.299 51.2859 149.004 51.2885L148.513 51.2886C147.638 51.2887 146.867 51.0843 146.125 49.9424ZM81.545 61.4271C82.6356 63.2573 82.8847 65.1474 81.3884 66.8114C80.2037 68.129 78.5881 68.6074 76.8424 67.9334C75.1636 67.2853 74.0341 66.0444 73.9152 64.2293C73.8033 62.5199 74.748 61.2502 76.2118 60.3964C78.0808 59.3063 79.7476 59.7442 81.545 61.4271ZM137.253 90.8268C138.748 90.8268 139.5 90.8268 139.878 91.2025C140.261 91.5829 140.261 92.3481 140.261 93.8878C140.261 95.3548 140.261 96.0927 139.892 96.4639C139.518 96.8397 138.766 96.8397 137.253 96.8397C135.74 96.8397 134.989 96.8397 134.615 96.4639C134.246 96.0927 134.246 95.3548 134.246 93.8878C134.246 92.3468 134.246 91.5816 134.629 91.2016C135.006 90.8268 135.756 90.8268 137.246 90.8268H137.253ZM157.209 59.1791C157.209 58.5538 155.559 55.6035 154.803 55.6173C154.048 55.6312 152.397 58.5538 152.397 59.1791C152.397 59.8044 157.209 59.8044 157.209 59.1791ZM137.409 80.6592C138.809 80.6588 139.522 80.6586 139.885 81.0147C140.261 81.3837 140.261 82.1353 140.261 83.6658C140.261 85.1327 140.261 85.8707 139.892 86.2419C139.518 86.6177 138.766 86.6177 137.253 86.6177C135.74 86.6177 134.989 86.6177 134.615 86.2419C134.246 85.8707 134.246 85.1327 134.246 83.6658C134.246 82.134 134.246 81.3824 134.622 81.0137C134.984 80.6585 135.695 80.6587 137.091 80.6592L137.253 80.6593L137.409 80.6592ZM137.409 70.4091C138.809 70.4087 139.522 70.4084 139.885 70.7646C140.261 71.1336 140.261 71.8852 140.261 73.4156C140.261 74.8826 140.261 75.6205 139.892 75.9918C139.518 76.3676 138.766 76.3676 137.253 76.3676C135.74 76.3676 134.989 76.3676 134.615 75.9918C134.246 75.6205 134.246 74.8826 134.246 73.4156C134.246 71.8839 134.246 71.1323 134.622 70.7636C134.984 70.4084 135.695 70.4086 137.091 70.4091L137.253 70.4092L137.409 70.4091ZM139.878 100.823C139.5 100.448 138.748 100.448 137.253 100.448H137.246C135.756 100.448 135.006 100.448 134.629 100.822C134.246 101.202 134.246 101.968 134.246 103.509C134.246 104.976 134.246 105.713 134.615 106.085C134.989 106.46 135.74 106.46 137.253 106.46C138.766 106.46 139.518 106.46 139.892 106.085C140.261 105.713 140.261 104.976 140.261 103.509C140.261 101.969 140.261 101.204 139.878 100.823ZM165.029 55.5953C165.029 54.994 160.217 54.994 160.217 55.5953C160.217 56.1966 162.021 59.2031 162.623 59.2031C163.224 59.2031 165.029 56.1966 165.029 55.5953ZM168.116 59.2031C168.116 59.8283 172.928 59.8283 172.928 59.2031C172.928 58.5778 171.277 55.6275 170.522 55.6413C169.766 55.6552 168.116 58.5778 168.116 59.2031ZM180.747 55.6193C180.747 55.018 175.935 55.018 175.935 55.6193C175.935 56.2206 177.74 59.227 178.341 59.227C178.943 59.227 180.747 56.2206 180.747 55.6193ZM183.528 59.1791C183.528 59.8044 188.34 59.8044 188.34 59.1791C188.34 58.5538 186.689 55.6035 185.934 55.6173C185.178 55.6312 183.528 58.5538 183.528 59.1791ZM196.159 55.5953C196.159 54.994 191.347 54.994 191.347 55.5953C191.347 56.1966 193.151 59.2031 193.753 59.2031C194.354 59.2031 196.159 56.1966 196.159 55.5953Z" fill="#B43838"/>
<path d="M43.176 218.56C44.232 220.928 44.76 223.344 44.76 225.808C44.76 237.936 39.416 244 28.728 244H17.88V209.2H29.352C35.72 209.2 40.328 212.32 43.176 218.56ZM22.344 240.016H25.128C27.592 240.016 29.064 240 29.544 239.968C32.744 239.936 35.256 238.88 37.08 236.8C38.904 234.688 39.816 231.216 39.816 226.384C39.816 219.184 37.608 214.96 33.192 213.712C32.168 213.424 30.888 213.28 29.352 213.28H22.344V240.016ZM72.5963 226.336C72.5963 223.168 70.8363 221.584 67.3163 221.584C63.7963 221.584 61.0763 222.48 59.1563 224.272L56.7563 221.968C59.2843 219.44 62.7083 218.176 67.0283 218.176H67.2683C73.5723 218.176 76.7243 221.6 76.7243 228.448V239.296C76.7243 240.576 77.2043 242.176 78.1643 244.096L74.6603 244C73.3483 243.232 72.6283 241.92 72.5003 240.064C70.9643 242.72 68.7883 244.208 65.9723 244.528C62.8683 244.528 60.5163 243.824 58.9163 242.416C57.3163 241.008 56.5163 239.312 56.5163 237.328V237.184C56.5163 235.136 56.9963 233.312 57.9563 231.712C59.8443 228.736 64.6923 227.168 72.5003 227.008L72.5963 226.336ZM61.6523 239.296C62.1003 240 63.3003 240.352 65.2523 240.352C67.1723 240.352 68.6603 239.984 69.7163 239.248C70.8043 238.544 71.6203 237.28 72.1643 235.456C72.3883 234.816 72.5003 234.32 72.5003 233.968V230.176C68.7563 230.304 65.8923 230.976 63.9083 232.192C61.9243 233.376 60.9323 234.896 60.9323 236.752C60.9323 237.776 61.1723 238.624 61.6523 239.296ZM107.18 239.008L110.54 239.296C109.708 242.816 107.276 244.576 103.244 244.576C99.2115 244.576 95.9955 243.328 93.5955 240.832C91.1635 238.4 89.9475 235.152 89.9475 231.088C89.9475 227.024 91.2275 223.904 93.7875 221.728C96.3475 219.616 99.1635 218.56 102.236 218.56C107.164 218.56 109.932 220.544 110.54 224.512H107.228C106.748 222.944 105.34 222.16 103.004 222.16C100.636 222.16 98.6195 222.992 96.9555 224.656C95.2595 226.32 94.4115 228.448 94.4115 231.04C94.4115 233.632 95.1635 235.872 96.6675 237.76C98.1395 239.68 100.188 240.64 102.812 240.64C105.404 240.64 106.86 240.096 107.18 239.008ZM134.343 218.176C134.663 218.176 135.367 218.208 136.455 218.272L136.407 222.544C135.767 222.416 135.143 222.352 134.535 222.352C131.783 222.448 129.783 223.12 128.535 224.368C127.287 225.616 126.663 227.488 126.663 229.984V244.144H122.199V219.376H126.663V224.464C127.271 222.448 128.279 220.896 129.687 219.808C131.127 218.72 132.679 218.176 134.343 218.176ZM163.089 226.336C163.089 223.168 161.329 221.584 157.809 221.584C154.289 221.584 151.569 222.48 149.649 224.272L147.249 221.968C149.777 219.44 153.201 218.176 157.521 218.176H157.761C164.065 218.176 167.217 221.6 167.217 228.448V239.296C167.217 240.576 167.697 242.176 168.657 244.096L165.153 244C163.841 243.232 163.121 241.92 162.993 240.064C161.457 242.72 159.281 244.208 156.465 244.528C153.361 244.528 151.009 243.824 149.409 242.416C147.809 241.008 147.009 239.312 147.009 237.328V237.184C147.009 235.136 147.489 233.312 148.449 231.712C150.337 228.736 155.185 227.168 162.993 227.008L163.089 226.336ZM152.145 239.296C152.593 240 153.793 240.352 155.745 240.352C157.665 240.352 159.153 239.984 160.209 239.248C161.297 238.544 162.113 237.28 162.657 235.456C162.881 234.816 162.993 234.32 162.993 233.968V230.176C159.249 230.304 156.385 230.976 154.401 232.192C152.417 233.376 151.425 234.896 151.425 236.752C151.425 237.776 151.665 238.624 152.145 239.296ZM198.201 244.144V228.688C198.201 224.4 196.425 222.256 192.873 222.256C190.313 222.256 188.345 223.056 186.969 224.656C185.561 226.256 184.857 228.624 184.857 231.76V244.144H180.393V218.272H184.857V224.176C185.561 222.32 186.713 220.864 188.313 219.808C189.881 218.72 191.433 218.176 192.969 218.176C199.433 218.208 202.665 221.296 202.665 227.44V244.144H198.201ZM236.522 233.2H219.29C219.546 235.856 220.298 237.728 221.546 238.816C222.826 239.936 224.538 240.496 226.682 240.496C230.49 240.496 233.53 239.488 235.802 237.472V242.08C233.178 243.744 230.122 244.576 226.634 244.576C223.146 244.576 220.33 243.36 218.186 240.928C216.01 238.464 214.922 235.36 214.922 231.616C214.922 227.904 216.026 224.8 218.234 222.304C220.442 219.808 223.274 218.56 226.73 218.56C228.618 218.56 230.25 218.928 231.626 219.664C234.89 221.616 236.522 226.128 236.522 233.2ZM226.682 222.832H226.586C222.298 222.832 219.866 225.024 219.29 229.408H232.778C232.618 227.136 232.09 225.472 231.194 224.416C230.266 223.36 228.762 222.832 226.682 222.832Z" fill="#B43838"/>
</svg>
